# AST/ASF file generated using VICON BodyLanguage
# -----------------------------------------------
:version 1.10
:name VICON
:units
  mass 1.0
  length 0.45
  angle deg
:documentation
   .ast/.asf automatically generated from VICON data using
   VICON BodyBuilder and BodyLanguage model FoxedUp or BRILLIANT.MOD
:root
   order TX TY TZ RX RY RZ
   axis XYZ
   position 0 0 0  
   orientation 0 0 0 
:bonedata
  begin
     id 1 
     name lhipjoint
     direction 0.576517 -0.752066 0.319413 
     length 2.45433 
     axis 0 0 0  XYZ
  end
  begin
     id 2 
     name lfemur
     direction 0.34202 -0.939693 0  
     length 7.54459  
     axis 0 0 20  XYZ
    dof rx ry rz
    limits (-160.0 20.0)
           (-70.0 70.0)
           (-60.0 70.0)
  end
  begin
     id 3 
     name ltibia
     direction 0.34202 -0.939693 0   
     length 7.73986   
     axis 0 0 20   XYZ
    dof rx
    limits (-10.0 170.0)
  end
  begin
     id 4 
     name lfoot
     direction 0.090693 -0.249177 0.964202   
     length 2.28437   
     axis -90 7.62852e-016 20   XYZ
    dof rx rz
    limits (-45.0 90.0)
           (-70.0 20.0)
  end
  begin
     id 5 
     name ltoes
     direction 1.5356e-011 -4.21928e-011 1   
     length 1.14243   
     axis -90 7.62852e-016 20   XYZ
    dof rx
    limits (-90.0 20.0)
  end
  begin
     id 6 
     name rhipjoint
     direction -0.573937 -0.753736 0.320122   
     length 2.44889  
     axis 0 0 0  XYZ 
  end
  begin
     id 7 
     name rfemur
     direction -0.34202 -0.939693 0   
     length 7.50166   
     axis 0 0 -20   XYZ
    dof rx ry rz
    limits (-160.0 20.0)
           (-70.0 70.0)
           (-70.0 60.0)
  end
  begin
     id 8 
     name rtibia
     direction -0.34202 -0.939693 0   
     length 7.54266   
     axis 0 0 -20   XYZ
    dof rx
    limits (-10.0 170.0)
 end
 begin
     id 9 
     name rfoot
     direction -0.114017 -0.31326 0.942798   
     length 2.34212  
     axis -90 -7.62852e-016 -20   XYZ
    dof rx rz
    limits (-45.0 90.0)
           (-20.0 70.0)
  end
  begin
     id 10 
     name rtoes
     direction -1.53557e-011 -4.21867e-011 1   
     length 1.16246   
     axis -90 -7.62852e-016 -20   XYZ
    dof rx
    limits (-90.0 20.0)
  end
  begin
     id 11 
     name lowerback
     direction -0.0228371 0.999155 -0.034167   
     length 2.0537   
     axis 0 0 0   XYZ
    dof rx ry rz
    limits (-20.0 45.0)
           (-30.0 30.0)
           (-30.0 30.0)
  end
  begin
     id 12 
     name upperback
     direction 0.0198981 0.999794 0.00389455   
     length 2.05302   
     axis 0 0 0   XYZ
    dof rx ry rz
    limits (-20.0 45.0)
           (-30.0 30.0)
           (-30.0 30.0)
  end
  begin
     id 13 
     name thorax
     direction 0.0304566 0.99935 0.0192987   
     length 2.05315   
     axis 0 0 0   XYZ
    dof rx ry rz
    limits (-20.0 45.0)
           (-30.0 30.0)
           (-30.0 30.0)
  end
  begin
     id 14 
     name lowerneck
     direction -0.0196762 0.99417 0.106017   
     length 1.82056   
     axis 0 0 0   XYZ
    dof rx ry rz
    limits (-20.0 45.0)
           (-30.0 30.0)
           (-30.0 30.0)
  end
  begin
     id 15 
     name upperneck
     direction 0.00517787 0.9802 -0.197944   
     length 1.83835   
     axis 0 0 0   XYZ
    dof rx ry rz
    limits (-20.0 45.0)
           (-30.0 30.0)
           (-30.0 30.0)
  end
  begin
     id 16
     name head
     direction 0.00211419 0.996945 -0.078081  
     length 1.85629  
     axis 0 0 0   XYZ
    dof rx ry rz
    limits (-20.0 45.0)
           (-30.0 30.0)
           (-30.0 30.0)
  end
  begin
     id 17 
     name lclavicle
     direction 0.930001 0.365811 -0.0357824  
     length 3.81961  
     axis 0 0 0   XYZ
    dof ry rz
    limits (-20.0 10.0)
           (0.0 20.0)
  end
  begin
     id 18 
     name lhumerus
     direction 1 -4.48968e-011 -3.06644e-027   
     length 5.14507   
     axis 180 -30 -90   XYZ
    dof rx ry rz
    limits (-60.0 90.0)
           (-90.0 90.0)
           (-90.0 90.0)
  end
  begin
     id 19
     name lradius
     direction 1 -4.48965e-011 9.06925e-028   
     length 3.50646   
     axis 180 -30 -90   XYZ
    dof rx
    limits (-10.0 170.0)
  end
  begin
     id 20
     name lwrist
     direction 1 -4.48957e-011 1.03922e-027   
     length 1.75323   
     axis -2.56395e-016 90 90   XYZ
    dof ry
    limits (-180.0 0.0)
 end
  begin
     id 21 
     name lhand
     direction 1 -4.48967e-011 2.08017e-027   
     length 0.629969   
     axis -1.32723e-015 90 90   XYZ
    dof rx rz
    limits (-90.0 90.0)
           (-45.0 45.0)
  end
  begin
     id 22 
     name lfingers
     direction 1 -4.49089e-011 4.20095e-027   
     length 0.507897   
     axis -2.6545e-015 90 90   XYZ
    dof rx
    limits (0.0 90.0)
  end
  begin
     id 23
     name lthumb
     direction 0.707107 -6.35001e-011 0.707107   
     length 0.729241   
     axis -90 45 5.05613e-014   XYZ
    dof rx rz
    limits (-45.0 45.0)
           (-45.0 45.0)
  end
  begin
     id 24 
     name rclavicle
     direction -0.881882 0.464123 -0.0829113   
     length 3.47515  
     axis 0 0 0   XYZ 
    dof ry rz
    limits (-10.0 20.0)
           (-20.0 0.0)
  end
  begin
     id 25 
     name rhumerus
     direction -1 -4.48961e-011 -1.55672e-027  
     length 5.232   
     axis 180 30 90   XYZ
    dof rx ry rz
    limits (-90.0 60.0)
           (-90.0 90.0)
           (-90.0 90.0)
  end
  begin
     id 26 
     name rradius
     direction -1 -4.48963e-011 6.18178e-029   
     length 3.65641   
     axis 180 30 90   XYZ
    dof rx
    limits (-10.0 170.0)
  end
  begin
     id 27 
     name rwrist
     direction -1 -4.48982e-011 1.04136e-027   
     length 1.8282   
     axis -2.56395e-016 -90 -90   XYZ
    dof ry
    limits (-180.0 0.0)
  end
  begin
     id 28
     name rhand
     direction -1 -4.48929e-011 2.07378e-027   
     length 0.656807   
     axis -1.32723e-015 -90 -90   XYZ
    dof rx rz
    limits (-90.0 90.0)
           (-45.0 45.0)
  end
  begin
     id 29
     name rfingers
     direction -1 -4.489e-011 4.13816e-027   
     length 0.529535   
     axis -2.6545e-015 -90 -90   XYZ
    dof rx
    limits (0.0 90.0)
  end
  begin
     id 30
     name rthumb
     direction -0.707107 -6.34843e-011 0.707107   
     length 0.760309   
     axis -90 -45 -5.05613e-014   XYZ
    dof rx rz
    limits (-45.0 45.0)
           (-45.0 45.0)
  end
:hierarchy
  begin
    root lhipjoint rhipjoint lowerback
    lhipjoint lfemur
    lfemur ltibia
    ltibia lfoot
    lfoot ltoes
    rhipjoint rfemur
    rfemur rtibia
    rtibia rfoot
    rfoot rtoes
    lowerback upperback
    upperback thorax
    thorax lowerneck lclavicle rclavicle
    lowerneck upperneck
    upperneck head
    lclavicle lhumerus
    lhumerus lradius
    lradius lwrist
    lwrist lhand lthumb
    lhand lfingers
    rclavicle rhumerus
    rhumerus rradius
    rradius rwrist
    rwrist rhand rthumb
    rhand rfingers
  end

#!OML:ASF H:\ManfredETheater\Project 1\Capture day 1\Session 1\subject.ASF
:FULLY-SPECIFIED
:DEGREES
32
root 1.69857 17.1203 -38.1365 24.4749 -9.12307 4.21798
lowerback 13.0975 -2.29533 -1.1796
upperback -0.743024 -3.07297 1.98015
thorax -7.9781 -1.39304 3.38042
lowerneck -22.3391 3.72663 0.597388
upperneck 1.69061 5.30521 -6.71678
head 4.21174 2.16392 -1.69431
rclavicle -5.40694e-014 2.06736e-014
rhumerus -78.1471 1.88201 -74.7488
rradius 92.7635
rwrist -5.81167
rhand -27.0271 7.36698
rfingers 7.12502
rthumb -0.446261 -22.6123
lclavicle -5.40694e-014 2.06736e-014
lhumerus -32.2418 -28.4962 96.8277
lradius 135.449
lwrist 9.38901
lhand -24.7745 -20.2222
lfingers 7.12502
lthumb 1.72936 9.75055
rfemur -66.5453 -5.36938 14.3267
rtibia 64.6703
rfoot -15.2395 -5.15353
rtoes -40.9436
lfemur -8.92145 -9.38825 -30.9301
ltibia 42.0858
lfoot 20.4816 -14.552
ltoes 0.132373
33
root 1.65008 17.1384 -37.7372 23.9557 -9.19208 4.29929
lowerback 13.3154 -2.17286 -1.35798
upperback -0.597693 -2.94061 1.96183
thorax -7.94537 -1.32339 3.44231
lowerneck -22.2976 3.66465 0.608899
upperneck 1.90921 5.24386 -6.81972
head 4.27675 2.12234 -1.73347
rclavicle -1.74931e-014 -1.47101e-014
rhumerus -76.1614 1.72503 -74.8245
rradius 91.9476
rwrist -5.7067
rhand -27.0768 6.71105
rfingers 7.12502
rthumb -0.49424 -23.2681
lclavicle -1.74931e-014 -1.47101e-014
lhumerus -34.4391 -28.6609 97.6231
lradius 133.206
lwrist 9.70873
lhand -24.7773 -19.7628
lfingers 7.12502
lthumb 1.72662 10.21
rfemur -65.446 -5.44231 14.4869
rtibia 63.7776
rfoot -14.8139 -4.56561
rtoes -40.7253
lfemur -9.50212 -9.26201 -31.1905
ltibia 44.9067
lfoot 20.052 -14.1827
ltoes 1.73379
34
root 1.59953 17.1485 -37.3409 23.4227 -9.10457 4.27426
lowerback 13.5593 -2.06518 -1.39842
upperback -0.430635 -2.80302 1.98835
thorax -7.90918 -1.25636 3.47335
lowerneck -22.2503 3.56662 0.58606
upperneck 2.10751 5.14266 -6.92207
head 4.33216 2.06132 -1.77145
rclavicle 3.77691e-014 -1.90833e-014
rhumerus -73.9659 1.54056 -74.9882
rradius 91.1086
rwrist -5.6595
rhand -27.1869 6.0694
rfingers 7.12502
rthumb -0.60062 -23.9095
lclavicle 3.77691e-014 -1.90833e-014
lhumerus -36.5812 -28.6109 98.4192
lradius 130.657
lwrist 10.482
lhand -24.7211 -19.3155
lfingers 7.12502
lthumb 1.78095 10.6568
rfemur -64.105 -5.58909 14.8074
rtibia 63.1858
rfoot -14.3887 -4.16817
rtoes -40.2015
lfemur -10.4023 -8.89483 -31.2222
ltibia 48.2852
lfoot 18.8829 -13.6413
ltoes 2.52427
35
root 1.54647 17.1527 -36.9466 22.883 -8.855 4.09408
lowerback 13.8317 -1.97333 -1.26039
upperback -0.24603 -2.65306 2.07547
thorax -7.87629 -1.18937 3.46607
lowerneck -22.1885 3.43163 0.522576
upperneck 2.27963 5.00151 -7.02438
head 4.37469 1.98101 -1.80753
rclavicle 2.50469e-014 -7.95139e-016
rhumerus -71.6146 1.34024 -75.2314
rradius 90.2907
rwrist -5.70917
rhand -27.305 5.48261
rfingers 7.12502
rthumb -0.714662 -24.4959
lclavicle 2.50469e-014 -7.95139e-016
lhumerus -38.623 -28.3662 99.1918
lradius 127.825
lwrist 11.5841
lhand -24.6405 -18.9323
lfingers 7.12502
lthumb 1.8588 11.0393
rfemur -62.4904 -5.78427 15.3207
rtibia 62.8127
rfoot -14.0191 -4.06179
rtoes -39.4477
lfemur -11.5952 -8.36492 -30.967
ltibia 52.0686
lfoot 17.4293 -12.9346
ltoes 2.43382
36
root 1.49049 17.1524 -36.5533 22.3296 -8.44225 3.7347
lowerback 14.1444 -1.89923 -0.922024
upperback -0.0443554 -2.48805 2.22807
thorax -7.8538 -1.12136 3.41308
lowerneck -22.1208 3.26013 0.417785
upperneck 2.43131 4.82087 -7.12051
head 4.40719 1.8817 -1.83945
rclavicle 2.18663e-014 7.95139e-015
rhumerus -69.1478 1.12791 -75.5478
rradius 89.5245
rwrist -5.86269
rhand -27.4032 4.97222
rfingers 7.12502
rthumb -0.809468 -25.006
lclavicle 2.18663e-014 7.95139e-015
lhumerus -40.5164 -27.9345 99.9011
lradius 124.73
lwrist 12.8245
lhand -24.5624 -18.6549
lfingers 7.12502
lthumb 1.93417 11.3161
rfemur -60.5462 -6.01075 16.0308
rtibia 62.4916
rfoot -13.7891 -4.08193
rtoes -38.3275
lfemur -13.0031 -7.72971 -30.3965
ltibia 56.0219
lfoot 15.9493 -12.2374
ltoes 1.66835
37
root 1.43116 17.1479 -36.1612 21.7795 -7.91395 3.18691
lowerback 14.4932 -1.8302 -0.405916
upperback 0.156491 -2.29293 2.44653
thorax -7.8573 -1.04344 3.32453
lowerneck -22.027 3.05431 0.267096
upperneck 2.56449 4.60355 -7.19896
head 4.42701 1.76589 -1.86259
rclavicle -1.47101e-014 1.19271e-014
rhumerus -66.6109 0.925611 -75.9354
rradius 88.8437
rwrist -6.0809
rhand -27.4868 4.52791
rfingers 7.12502
rthumb -0.8903 -25.45
lclavicle -1.47101e-014 1.19271e-014
lhumerus -42.2475 -27.3364 100.528
lradius 121.388
lwrist 14.0294
lhand -24.5002 -18.5222
lfingers 7.12502
lthumb 1.99427 11.4482
rfemur -58.3194 -6.22352 16.9187
rtibia 62.1903
rfoot -13.8577 -4.36479
rtoes -37.2401
lfemur -14.6684 -6.99027 -29.5188
ltibia 60.1186
lfoot 14.4 -11.7306
ltoes 0.225359
38
root 1.36907 17.1733 -35.7596 21.2302 -7.29899 2.47787
lowerback 14.8837 -1.75979 0.252301
upperback 0.346298 -2.06364 2.71779
thorax -7.89888 -0.952277 3.20595
lowerneck -21.9063 2.81814 0.0857913
upperneck 2.6894 4.35114 -7.26015
head 4.4378 1.63429 -1.87912
rclavicle 1.15295e-014 2.06736e-014
rhumerus -64.0391 0.740188 -76.3925
rradius 88.2775
rwrist -6.2974
rhand -27.5719 4.14694
rfingers 7.12502
rthumb -0.972397 -25.8306
lclavicle 1.15295e-014 2.06736e-014
lhumerus -43.8048 -26.5968 101.048
lradius 117.82
lwrist 15.0538
lhand -24.5065 -18.4795
lfingers 7.12502
lthumb 1.98821 11.491
rfemur -55.643 -6.41949 17.9348
rtibia 61.6918
rfoot -14.3246 -4.83653
rtoes -36.2995
lfemur -16.4877 -6.15515 -28.3666
ltibia 64.1132
lfoot 12.8642 -11.4564
ltoes -1.22498
39
root 1.30239 17.1614 -35.3701 20.68 -6.62988 1.64364
lowerback 15.3192 -1.68015 1.00558
upperback 0.519045 -1.79601 3.02786
thorax -7.98435 -0.844562 3.06792
lowerneck -21.7659 2.55706 -0.106422
upperneck 2.81885 4.06711 -7.31177
head 4.44558 1.48782 -1.89399
rclavicle -1.03368e-014 7.95139e-016
rhumerus -61.453 0.578533 -76.9146
rradius 87.858
rwrist -6.44455
rhand -27.672 3.83964
rfingers 7.12502
rthumb -1.0691 -26.1374
lclavicle -1.03368e-014 7.95139e-016
lhumerus -45.1813 -25.7305 101.425
lradius 114.073
lwrist 15.8328
lhand -24.5586 -18.4815
lfingers 7.12502
lthumb 1.93786 11.4894
rfemur -52.9296 -6.56014 19.0364
rtibia 61.1945
rfoot -15.0804 -5.46063
rtoes -35.6309
lfemur -18.5931 -5.23906 -27.016
ltibia 68.1795
lfoot 11.1997 -11.3524
ltoes -2.32544
40
root 1.23244 17.1443 -34.9834 20.1336 -5.93076 0.715518
lowerback 15.7985 -1.58754 1.81869
upperback 0.665974 -1.48904 3.36579
thorax -8.12008 -0.719248 2.91803
lowerneck -21.6013 2.27857 -0.292571
upperneck 2.96018 3.75814 -7.36352
head 4.45294 1.32925 -1.91218
rclavicle 8.74653e-015 -4.21423e-014
rhumerus -58.8752 0.457856 -77.4923
rradius 87.618
rwrist -6.46739
rhand -27.8023 3.59498
rfingers 7.12502
rthumb -1.19498 -26.3814
lclavicle 8.74653e-015 -4.21423e-014
lhumerus -46.4103 -24.762 101.661
lradius 110.211
lwrist 16.2812
lhand -24.6841 -18.5076
lfingers 7.12502
lthumb 1.8167 11.4644
rfemur -50.0557 -6.64093 20.1834
rtibia 60.5362
rfoot -16.137 -6.18728
rtoes -35.3786
lfemur -20.9038 -4.25673 -25.512
ltibia 72.1216
lfoot 9.40749 -11.3364
ltoes -3.09869
41
root 1.16009 17.1212 -34.5995 19.6117 -5.23852 -0.285268
lowerback 16.2964 -1.47584 2.66698
upperback 0.781162 -1.13816 3.72059
thorax -8.297 -0.574344 2.75589
lowerneck -21.4302 1.99281 -0.460822
upperneck 3.12904 3.4364 -7.41912
head 4.46813 1.1636 -1.93538
rclavicle -2.46493e-014 7.95139e-016
rhumerus -56.3216 0.394072 -78.1127
rradius 87.5944
rwrist -6.37103
rhand -27.9516 3.41323
rfingers 7.12502
rthumb -1.33912 -26.5623
lclavicle -2.46493e-014 7.95139e-016
lhumerus -47.5313 -23.696 101.732
lradius 106.339
lwrist 16.2536
lhand -24.8148 -18.4951
lfingers 7.12502
lthumb 1.6904 11.478
rfemur -47.1217 -6.64206 21.3595
rtibia 59.7814
rfoot -17.478 -7.00945
rtoes -35.5296
lfemur -23.4337 -3.20608 -23.9097
ltibia 75.9296
lfoot 7.41439 -11.2954
ltoes -3.49577
42
root 1.08635 17.0923 -34.2185 19.1443 -4.5774 -1.32448
lowerback 16.774 -1.34288 3.52035
upperback 0.859664 -0.747616 4.07935
thorax -8.49721 -0.411874 2.58379
lowerneck -21.27 1.70636 -0.60335
upperneck 3.33967 3.1102 -7.47906
head 4.49855 0.994242 -1.96424
rclavicle 2.38542e-015 1.35174e-014
rhumerus -53.8193 0.404803 -78.7699
rradius 87.8314
rwrist -6.16798
rhand -28.1588 3.24955
rfingers 7.12502
rthumb -1.53926 -26.7246
lclavicle 2.38542e-015 1.35174e-014
lhumerus -48.6163 -22.5733 101.655
lradius 102.594
lwrist 15.7826
lhand -24.9489 -18.4837
lfingers 7.12502
lthumb 1.56092 11.4903
rfemur -44.1905 -6.5624 22.5431
rtibia 58.8694
rfoot -18.9379 -7.90358
rtoes -36.068
lfemur -26.1888 -2.09595 -22.279
ltibia 79.4948
lfoot 5.27472 -11.1458
ltoes -3.70286
43
root 1.01264 17.058 -33.8395 18.7601 -3.9693 -2.35816
lowerback 17.1928 -1.19001 4.34607
upperback 0.89683 -0.329481 4.42415
thorax -8.70334 -0.2373 2.4024
lowerneck -21.1405 1.42862 -0.715402
upperneck 3.60804 2.79204 -7.53561
head 4.55241 0.827011 -1.99605
rclavicle 1.03368e-014 6.36111e-015
rhumerus -51.3925 0.503522 -79.4584
rradius 88.3471
rwrist -5.91261
rhand -28.388 3.14612
rfingers 7.12502
rthumb -1.7606 -26.8264
lclavicle 1.03368e-014 6.36111e-015
lhumerus -49.7487 -21.4193 101.436
lradius 99.1473
lwrist 14.8467
lhand -25.0915 -18.4993
lfingers 7.12502
lthumb 1.4232 11.4757
rfemur -41.3402 -6.42547 23.7099
rtibia 57.8239
rfoot -20.4052 -8.78096
rtoes -36.6596
lfemur -29.193 -0.942586 -20.7095
ltibia 82.7669
lfoot 3.06251 -10.8395
ltoes -3.94824
44
root 0.940049 17.0187 -33.4617 18.4787 -3.44105 -3.34914
lowerback 17.5204 -1.01731 5.11131
upperback 0.894793 0.103542 4.73695
thorax -8.89486 -0.0558973 2.2131
lowerneck -21.0507 1.16739 -0.804278
upperneck 3.93257 2.49246 -7.56678
head 4.63027 0.668386 -2.02199
rclavicle -1.59028e-015 -1.59028e-015
rhumerus -49.0689 0.701394 -80.1828
rradius 89.1595
rwrist -5.6691
rhand -28.6151 3.09884
rfingers 7.12502
rthumb -1.97994 -26.8717
lclavicle -1.59028e-015 -1.59028e-015
lhumerus -51.0187 -20.2717 101.091
lradius 96.1872
lwrist 13.511
lhand -25.2499 -18.5774
lfingers 7.12502
lthumb 1.27016 11.3986
rfemur -38.6159 -6.24503 24.8349
rtibia 56.6787
rfoot -21.8101 -9.66275
rtoes -37.2801
lfemur -32.4459 0.243739 -19.2837
ltibia 85.6938
lfoot 0.853329 -10.4083
ltoes -4.22421
